<svg xmlns="http://www.w3.org/2000/svg" xmlns:xlink="http://www.w3.org/1999/xlink" width="500" zoomAndPan="magnify" viewBox="0 0 375 374.999991" height="500" preserveAspectRatio="xMidYMid meet" version="1.0"><defs><g><g id="id1"/><g id="id2"/></g><clipPath id="id3"><path d="M 122.636719 115.28125 L 208 115.28125 L 208 200.746094 L 122.636719 200.746094 Z M 122.636719 115.28125 " clip-rule="nonzero"/></clipPath></defs><g clip-path="url(#id3)"><path fill="rgb(98.039246%, 66.268921%, 10.978699%)" d="M 126.742188 127.933594 L 135.039062 119.632812 C 140.503906 114.15625 149.464844 114.15625 154.929688 119.632812 L 203.675781 168.429688 C 209.144531 173.902344 209.144531 182.878906 203.675781 188.351562 L 195.386719 196.644531 C 189.90625 202.121094 180.949219 202.121094 175.492188 196.644531 L 126.742188 147.851562 C 121.269531 142.375 121.269531 133.410156 126.742188 127.933594 " fill-opacity="1" fill-rule="evenodd"/></g><path fill="rgb(85.488892%, 32.939148%, 14.118958%)" d="M 158.988281 96.984375 L 178.890625 77.066406 C 183.445312 72.496094 190.894531 72.496094 195.457031 77.066406 L 215.355469 96.984375 C 219.921875 101.550781 219.921875 109.019531 215.355469 113.578125 L 195.457031 133.492188 C 190.894531 138.054688 183.445312 138.054688 178.890625 133.492188 L 158.988281 113.578125 C 154.429688 109.019531 154.429688 101.550781 158.988281 96.984375 " fill-opacity="1" fill-rule="evenodd"/><path fill="rgb(25.878906%, 43.919373%, 77.249146%)" d="M 197.613281 140.628906 L 222.476562 115.730469 C 225.769531 112.449219 231.132812 112.449219 234.410156 115.730469 L 249.007812 130.347656 C 252.296875 133.628906 252.296875 139.011719 249.007812 142.292969 L 224.140625 167.1875 C 220.855469 170.472656 215.484375 170.472656 212.199219 167.1875 L 197.613281 152.582031 C 194.328125 149.296875 194.328125 143.917969 197.613281 140.628906 " fill-opacity="1" fill-rule="evenodd"/><g fill="rgb(6.669617%, 6.269836%, 18.429565%)" fill-opacity="1"><g transform="translate(76.302124, 225.85415)"><g><path d="M 12.96875 0.421875 C 10.3125 0.421875 8.171875 0.140625 6.546875 -0.421875 C 4.921875 -0.992188 3.6875 -1.78125 2.84375 -2.78125 C 2 -3.78125 1.429688 -4.929688 1.140625 -6.234375 L 9.875 -6.234375 C 10.519531 -5.304688 11.550781 -4.84375 12.96875 -4.84375 C 14.375 -4.84375 15.398438 -5.304688 16.046875 -6.234375 C 16.109375 -6.328125 16.140625 -6.410156 16.140625 -6.484375 C 16.140625 -6.722656 15.8125 -6.90625 15.15625 -7.03125 C 14.5 -7.15625 13.523438 -7.25 12.234375 -7.3125 C 10.609375 -7.382812 8.894531 -7.554688 7.09375 -7.828125 C 3.09375 -8.453125 1.09375 -10.0625 1.09375 -12.65625 C 1.09375 -12.875 1.109375 -13.109375 1.140625 -13.359375 C 1.429688 -14.660156 2 -15.8125 2.84375 -16.8125 C 3.6875 -17.8125 4.921875 -18.59375 6.546875 -19.15625 C 8.171875 -19.726562 10.3125 -20.015625 12.96875 -20.015625 C 15.613281 -20.015625 17.75 -19.726562 19.375 -19.15625 C 21 -18.59375 22.234375 -17.8125 23.078125 -16.8125 C 23.921875 -15.8125 24.488281 -14.660156 24.78125 -13.359375 L 16.046875 -13.359375 C 15.398438 -14.285156 14.375 -14.75 12.96875 -14.75 C 11.550781 -14.75 10.519531 -14.285156 9.875 -13.359375 C 9.820312 -13.285156 9.796875 -13.21875 9.796875 -13.15625 C 9.796875 -12.9375 10.109375 -12.773438 10.734375 -12.671875 C 11.359375 -12.566406 12.28125 -12.476562 13.5 -12.40625 C 14.71875 -12.332031 16.015625 -12.210938 17.390625 -12.046875 C 18.765625 -11.878906 20.050781 -11.59375 21.25 -11.1875 C 22.445312 -10.78125 23.382812 -10.179688 24.0625 -9.390625 C 24.59375 -8.785156 24.859375 -8.007812 24.859375 -7.0625 C 24.859375 -6.800781 24.832031 -6.523438 24.78125 -6.234375 C 24.488281 -4.929688 23.921875 -3.78125 23.078125 -2.78125 C 22.234375 -1.78125 21 -0.992188 19.375 -0.421875 C 17.75 0.140625 15.613281 0.421875 12.96875 0.421875 Z M 12.96875 0.421875 "/></g></g></g><g fill="rgb(6.669617%, 6.269836%, 18.429565%)" fill-opacity="1"><g transform="translate(102.69572, 225.85415)"><g><path d="M 10.421875 0 L 2.1875 0 L 2.1875 -19.625 L 10.421875 -19.625 Z M 10.421875 0 "/></g></g></g><g fill="rgb(6.669617%, 6.269836%, 18.429565%)" fill-opacity="1"><g transform="translate(115.747428, 225.85415)"><g><path d="M 15.3125 0 L 2.1875 0 L 2.1875 -19.625 L 15.3125 -19.625 C 20.675781 -19.625 24.535156 -18.867188 26.890625 -17.359375 C 28.785156 -16.148438 29.867188 -14.503906 30.140625 -12.421875 C 30.253906 -11.515625 30.3125 -10.640625 30.3125 -9.796875 C 30.3125 -8.972656 30.253906 -8.109375 30.140625 -7.203125 C 30.023438 -6.296875 29.722656 -5.414062 29.234375 -4.5625 C 28.742188 -3.707031 27.960938 -2.9375 26.890625 -2.25 C 25.816406 -1.570312 24.347656 -1.023438 22.484375 -0.609375 C 20.617188 -0.203125 18.226562 0 15.3125 0 Z M 14.53125 -4.859375 C 18.71875 -4.859375 21.082031 -5.914062 21.625 -8.03125 C 21.769531 -8.625 21.84375 -9.210938 21.84375 -9.796875 C 21.84375 -10.398438 21.765625 -10.992188 21.609375 -11.578125 C 21.460938 -12.171875 21.144531 -12.707031 20.65625 -13.1875 C 20.175781 -13.664062 19.445312 -14.046875 18.46875 -14.328125 C 17.5 -14.617188 16.1875 -14.765625 14.53125 -14.765625 L 10.421875 -14.765625 L 10.421875 -4.859375 Z M 14.53125 -4.859375 "/></g></g></g><g fill="rgb(6.669617%, 6.269836%, 18.429565%)" fill-opacity="1"><g transform="translate(147.595344, 225.85415)"><g><path d="M 32.953125 0 L 24.609375 0 L 22.765625 -3.21875 L 10.390625 -3.21875 L 8.546875 0 L 0.203125 0 L 12.75 -19.609375 L 20.40625 -19.609375 Z M 19.984375 -8.0625 L 16.578125 -14.015625 L 13.171875 -8.0625 Z M 19.984375 -8.0625 "/></g></g></g><g fill="rgb(6.669617%, 6.269836%, 18.429565%)" fill-opacity="1"><g transform="translate(181.193021, 225.85415)"><g><path d="M 34.40625 0 L 23.703125 0 L 15.28125 -6.5625 L 10.421875 -3.234375 L 10.421875 0 L 2.1875 0 L 2.1875 -19.625 L 10.421875 -19.625 L 10.421875 -10.546875 L 23.625 -19.625 L 34.40625 -19.625 L 20.34375 -10.015625 Z M 34.40625 0 "/></g></g></g><g fill="rgb(6.669617%, 6.269836%, 18.429565%)" fill-opacity="1"><g transform="translate(216.239715, 225.85415)"><g><path d="M 12.96875 0.421875 C 10.3125 0.421875 8.171875 0.140625 6.546875 -0.421875 C 4.921875 -0.992188 3.6875 -1.78125 2.84375 -2.78125 C 2 -3.78125 1.429688 -4.929688 1.140625 -6.234375 L 9.875 -6.234375 C 10.519531 -5.304688 11.550781 -4.84375 12.96875 -4.84375 C 14.375 -4.84375 15.398438 -5.304688 16.046875 -6.234375 C 16.109375 -6.328125 16.140625 -6.410156 16.140625 -6.484375 C 16.140625 -6.722656 15.8125 -6.90625 15.15625 -7.03125 C 14.5 -7.15625 13.523438 -7.25 12.234375 -7.3125 C 10.609375 -7.382812 8.894531 -7.554688 7.09375 -7.828125 C 3.09375 -8.453125 1.09375 -10.0625 1.09375 -12.65625 C 1.09375 -12.875 1.109375 -13.109375 1.140625 -13.359375 C 1.429688 -14.660156 2 -15.8125 2.84375 -16.8125 C 3.6875 -17.8125 4.921875 -18.59375 6.546875 -19.15625 C 8.171875 -19.726562 10.3125 -20.015625 12.96875 -20.015625 C 15.613281 -20.015625 17.75 -19.726562 19.375 -19.15625 C 21 -18.59375 22.234375 -17.8125 23.078125 -16.8125 C 23.921875 -15.8125 24.488281 -14.660156 24.78125 -13.359375 L 16.046875 -13.359375 C 15.398438 -14.285156 14.375 -14.75 12.96875 -14.75 C 11.550781 -14.75 10.519531 -14.285156 9.875 -13.359375 C 9.820312 -13.285156 9.796875 -13.21875 9.796875 -13.15625 C 9.796875 -12.9375 10.109375 -12.773438 10.734375 -12.671875 C 11.359375 -12.566406 12.28125 -12.476562 13.5 -12.40625 C 14.71875 -12.332031 16.015625 -12.210938 17.390625 -12.046875 C 18.765625 -11.878906 20.050781 -11.59375 21.25 -11.1875 C 22.445312 -10.78125 23.382812 -10.179688 24.0625 -9.390625 C 24.59375 -8.785156 24.859375 -8.007812 24.859375 -7.0625 C 24.859375 -6.800781 24.832031 -6.523438 24.78125 -6.234375 C 24.488281 -4.929688 23.921875 -3.78125 23.078125 -2.78125 C 22.234375 -1.78125 21 -0.992188 19.375 -0.421875 C 17.75 0.140625 15.613281 0.421875 12.96875 0.421875 Z M 12.96875 0.421875 "/></g></g></g><g fill="rgb(6.669617%, 6.269836%, 18.429565%)" fill-opacity="1"><g transform="translate(242.633313, 225.85415)"><g><path d="M 14.828125 0.421875 C 9.984375 0.421875 6.414062 -0.578125 4.125 -2.578125 C 2.101562 -4.335938 1.09375 -6.742188 1.09375 -9.796875 C 1.09375 -12.847656 2.101562 -15.253906 4.125 -17.015625 C 6.414062 -19.015625 9.984375 -20.015625 14.828125 -20.015625 C 19.679688 -20.015625 23.253906 -19.015625 25.546875 -17.015625 C 27.566406 -15.253906 28.578125 -12.847656 28.578125 -9.796875 C 28.578125 -6.742188 27.566406 -4.335938 25.546875 -2.578125 C 23.253906 -0.578125 19.679688 0.421875 14.828125 0.421875 Z M 14.828125 -4.84375 C 16.816406 -4.84375 18.273438 -5.410156 19.203125 -6.546875 C 19.953125 -7.472656 20.328125 -8.554688 20.328125 -9.796875 C 20.328125 -11.046875 19.953125 -12.128906 19.203125 -13.046875 C 18.273438 -14.191406 16.816406 -14.765625 14.828125 -14.765625 C 12.847656 -14.765625 11.390625 -14.191406 10.453125 -13.046875 C 9.703125 -12.128906 9.328125 -11.046875 9.328125 -9.796875 C 9.328125 -8.554688 9.703125 -7.472656 10.453125 -6.546875 C 11.390625 -5.410156 12.847656 -4.84375 14.828125 -4.84375 Z M 14.828125 -4.84375 "/></g></g></g><g fill="rgb(6.669617%, 6.269836%, 18.429565%)" fill-opacity="1"><g transform="translate(272.745143, 225.85415)"><g><path d="M 12.96875 0.421875 C 10.3125 0.421875 8.171875 0.140625 6.546875 -0.421875 C 4.921875 -0.992188 3.6875 -1.78125 2.84375 -2.78125 C 2 -3.78125 1.429688 -4.929688 1.140625 -6.234375 L 9.875 -6.234375 C 10.519531 -5.304688 11.550781 -4.84375 12.96875 -4.84375 C 14.375 -4.84375 15.398438 -5.304688 16.046875 -6.234375 C 16.109375 -6.328125 16.140625 -6.410156 16.140625 -6.484375 C 16.140625 -6.722656 15.8125 -6.90625 15.15625 -7.03125 C 14.5 -7.15625 13.523438 -7.25 12.234375 -7.3125 C 10.609375 -7.382812 8.894531 -7.554688 7.09375 -7.828125 C 3.09375 -8.453125 1.09375 -10.0625 1.09375 -12.65625 C 1.09375 -12.875 1.109375 -13.109375 1.140625 -13.359375 C 1.429688 -14.660156 2 -15.8125 2.84375 -16.8125 C 3.6875 -17.8125 4.921875 -18.59375 6.546875 -19.15625 C 8.171875 -19.726562 10.3125 -20.015625 12.96875 -20.015625 C 15.613281 -20.015625 17.75 -19.726562 19.375 -19.15625 C 21 -18.59375 22.234375 -17.8125 23.078125 -16.8125 C 23.921875 -15.8125 24.488281 -14.660156 24.78125 -13.359375 L 16.046875 -13.359375 C 15.398438 -14.285156 14.375 -14.75 12.96875 -14.75 C 11.550781 -14.75 10.519531 -14.285156 9.875 -13.359375 C 9.820312 -13.285156 9.796875 -13.21875 9.796875 -13.15625 C 9.796875 -12.9375 10.109375 -12.773438 10.734375 -12.671875 C 11.359375 -12.566406 12.28125 -12.476562 13.5 -12.40625 C 14.71875 -12.332031 16.015625 -12.210938 17.390625 -12.046875 C 18.765625 -11.878906 20.050781 -11.59375 21.25 -11.1875 C 22.445312 -10.78125 23.382812 -10.179688 24.0625 -9.390625 C 24.59375 -8.785156 24.859375 -8.007812 24.859375 -7.0625 C 24.859375 -6.800781 24.832031 -6.523438 24.78125 -6.234375 C 24.488281 -4.929688 23.921875 -3.78125 23.078125 -2.78125 C 22.234375 -1.78125 21 -0.992188 19.375 -0.421875 C 17.75 0.140625 15.613281 0.421875 12.96875 0.421875 Z M 12.96875 0.421875 "/></g></g></g><g fill="rgb(98.039246%, 66.268921%, 10.978699%)" fill-opacity="1"><g transform="translate(38.054533, 244.58414)"><g><path d="M 3.703125 0.09375 C 3.078125 0.09375 2.46875 0 1.875 -0.1875 C 1.289062 -0.382812 0.828125 -0.640625 0.484375 -0.953125 L 0.9375 -1.890625 C 1.257812 -1.609375 1.671875 -1.375 2.171875 -1.1875 C 2.671875 -1.007812 3.179688 -0.921875 3.703125 -0.921875 C 4.398438 -0.921875 4.921875 -1.035156 5.265625 -1.265625 C 5.609375 -1.503906 5.78125 -1.820312 5.78125 -2.21875 C 5.78125 -2.507812 5.6875 -2.742188 5.5 -2.921875 C 5.3125 -3.097656 5.078125 -3.234375 4.796875 -3.328125 C 4.523438 -3.429688 4.140625 -3.539062 3.640625 -3.65625 C 3.003906 -3.8125 2.492188 -3.960938 2.109375 -4.109375 C 1.722656 -4.265625 1.390625 -4.5 1.109375 -4.8125 C 0.835938 -5.132812 0.703125 -5.5625 0.703125 -6.09375 C 0.703125 -6.539062 0.816406 -6.941406 1.046875 -7.296875 C 1.285156 -7.660156 1.644531 -7.953125 2.125 -8.171875 C 2.601562 -8.390625 3.195312 -8.5 3.90625 -8.5 C 4.40625 -8.5 4.894531 -8.429688 5.375 -8.296875 C 5.851562 -8.171875 6.265625 -7.988281 6.609375 -7.75 L 6.21875 -6.796875 C 5.863281 -7.015625 5.484375 -7.179688 5.078125 -7.296875 C 4.679688 -7.410156 4.289062 -7.46875 3.90625 -7.46875 C 3.226562 -7.46875 2.71875 -7.34375 2.375 -7.09375 C 2.039062 -6.851562 1.875 -6.535156 1.875 -6.140625 C 1.875 -5.859375 1.96875 -5.625 2.15625 -5.4375 C 2.351562 -5.257812 2.59375 -5.117188 2.875 -5.015625 C 3.15625 -4.921875 3.539062 -4.816406 4.03125 -4.703125 C 4.664062 -4.546875 5.171875 -4.390625 5.546875 -4.234375 C 5.929688 -4.085938 6.257812 -3.859375 6.53125 -3.546875 C 6.8125 -3.234375 6.953125 -2.816406 6.953125 -2.296875 C 6.953125 -1.847656 6.832031 -1.441406 6.59375 -1.078125 C 6.351562 -0.722656 5.988281 -0.4375 5.5 -0.21875 C 5.019531 -0.0078125 4.421875 0.09375 3.703125 0.09375 Z M 3.703125 0.09375 "/></g></g></g><g fill="rgb(98.039246%, 66.268921%, 10.978699%)" fill-opacity="1"><g transform="translate(45.326546, 244.58414)"><g><path d="M 1.265625 -8.40625 L 2.453125 -8.40625 L 2.453125 0 L 1.265625 0 Z M 1.265625 -8.40625 "/></g></g></g><g fill="rgb(98.039246%, 66.268921%, 10.978699%)" fill-opacity="1"><g transform="translate(48.86655, 244.58414)"><g><path d="M 3.703125 0.09375 C 3.078125 0.09375 2.46875 0 1.875 -0.1875 C 1.289062 -0.382812 0.828125 -0.640625 0.484375 -0.953125 L 0.9375 -1.890625 C 1.257812 -1.609375 1.671875 -1.375 2.171875 -1.1875 C 2.671875 -1.007812 3.179688 -0.921875 3.703125 -0.921875 C 4.398438 -0.921875 4.921875 -1.035156 5.265625 -1.265625 C 5.609375 -1.503906 5.78125 -1.820312 5.78125 -2.21875 C 5.78125 -2.507812 5.6875 -2.742188 5.5 -2.921875 C 5.3125 -3.097656 5.078125 -3.234375 4.796875 -3.328125 C 4.523438 -3.429688 4.140625 -3.539062 3.640625 -3.65625 C 3.003906 -3.8125 2.492188 -3.960938 2.109375 -4.109375 C 1.722656 -4.265625 1.390625 -4.5 1.109375 -4.8125 C 0.835938 -5.132812 0.703125 -5.5625 0.703125 -6.09375 C 0.703125 -6.539062 0.816406 -6.941406 1.046875 -7.296875 C 1.285156 -7.660156 1.644531 -7.953125 2.125 -8.171875 C 2.601562 -8.390625 3.195312 -8.5 3.90625 -8.5 C 4.40625 -8.5 4.894531 -8.429688 5.375 -8.296875 C 5.851562 -8.171875 6.265625 -7.988281 6.609375 -7.75 L 6.21875 -6.796875 C 5.863281 -7.015625 5.484375 -7.179688 5.078125 -7.296875 C 4.679688 -7.410156 4.289062 -7.46875 3.90625 -7.46875 C 3.226562 -7.46875 2.71875 -7.34375 2.375 -7.09375 C 2.039062 -6.851562 1.875 -6.535156 1.875 -6.140625 C 1.875 -5.859375 1.96875 -5.625 2.15625 -5.4375 C 2.351562 -5.257812 2.59375 -5.117188 2.875 -5.015625 C 3.15625 -4.921875 3.539062 -4.816406 4.03125 -4.703125 C 4.664062 -4.546875 5.171875 -4.390625 5.546875 -4.234375 C 5.929688 -4.085938 6.257812 -3.859375 6.53125 -3.546875 C 6.8125 -3.234375 6.953125 -2.816406 6.953125 -2.296875 C 6.953125 -1.847656 6.832031 -1.441406 6.59375 -1.078125 C 6.351562 -0.722656 5.988281 -0.4375 5.5 -0.21875 C 5.019531 -0.0078125 4.421875 0.09375 3.703125 0.09375 Z M 3.703125 0.09375 "/></g></g></g><g fill="rgb(98.039246%, 66.268921%, 10.978699%)" fill-opacity="1"><g transform="translate(56.138563, 244.58414)"><g><path d="M 2.921875 -7.359375 L 0.046875 -7.359375 L 0.046875 -8.40625 L 7 -8.40625 L 7 -7.359375 L 4.109375 -7.359375 L 4.109375 0 L 2.921875 0 Z M 2.921875 -7.359375 "/></g></g></g><g fill="rgb(98.039246%, 66.268921%, 10.978699%)" fill-opacity="1"><g transform="translate(63.002572, 244.58414)"><g><path d="M 7.359375 -1.046875 L 7.359375 0 L 1.265625 0 L 1.265625 -8.40625 L 7.1875 -8.40625 L 7.1875 -7.359375 L 2.453125 -7.359375 L 2.453125 -4.78125 L 6.671875 -4.78125 L 6.671875 -3.75 L 2.453125 -3.75 L 2.453125 -1.046875 Z M 7.359375 -1.046875 "/></g></g></g><g fill="rgb(98.039246%, 66.268921%, 10.978699%)" fill-opacity="1"><g transform="translate(70.862582, 244.58414)"><g><path d="M 9.046875 0 L 9.03125 -6.125 L 6 -1.015625 L 5.453125 -1.015625 L 2.40625 -6.078125 L 2.40625 0 L 1.265625 0 L 1.265625 -8.40625 L 2.25 -8.40625 L 5.75 -2.5 L 9.203125 -8.40625 L 10.1875 -8.40625 L 10.203125 0 Z M 9.046875 0 "/></g></g></g><g fill="rgb(98.039246%, 66.268921%, 10.978699%)" fill-opacity="1"><g transform="translate(82.142602, 244.58414)"><g/></g></g><g fill="rgb(98.039246%, 66.268921%, 10.978699%)" fill-opacity="1"><g transform="translate(85.190613, 244.58414)"><g><path d="M 1.265625 -8.40625 L 2.453125 -8.40625 L 2.453125 0 L 1.265625 0 Z M 1.265625 -8.40625 "/></g></g></g><g fill="rgb(98.039246%, 66.268921%, 10.978699%)" fill-opacity="1"><g transform="translate(88.730616, 244.58414)"><g><path d="M 8.484375 -8.40625 L 8.484375 0 L 7.5 0 L 2.453125 -6.265625 L 2.453125 0 L 1.265625 0 L 1.265625 -8.40625 L 2.25 -8.40625 L 7.28125 -2.140625 L 7.28125 -8.40625 Z M 8.484375 -8.40625 "/></g></g></g><g fill="rgb(98.039246%, 66.268921%, 10.978699%)" fill-opacity="1"><g transform="translate(98.294626, 244.58414)"><g><path d="M 2.453125 -7.359375 L 2.453125 -4.421875 L 6.671875 -4.421875 L 6.671875 -3.390625 L 2.453125 -3.390625 L 2.453125 0 L 1.265625 0 L 1.265625 -8.40625 L 7.1875 -8.40625 L 7.1875 -7.359375 Z M 2.453125 -7.359375 "/></g></g></g><g fill="rgb(98.039246%, 66.268921%, 10.978699%)" fill-opacity="1"><g transform="translate(105.734636, 244.58414)"><g><path d="M 5.046875 0.09375 C 4.203125 0.09375 3.4375 -0.0859375 2.75 -0.453125 C 2.070312 -0.828125 1.539062 -1.34375 1.15625 -2 C 0.769531 -2.65625 0.578125 -3.390625 0.578125 -4.203125 C 0.578125 -5.003906 0.769531 -5.734375 1.15625 -6.390625 C 1.539062 -7.046875 2.070312 -7.5625 2.75 -7.9375 C 3.4375 -8.3125 4.203125 -8.5 5.046875 -8.5 C 5.890625 -8.5 6.648438 -8.3125 7.328125 -7.9375 C 8.015625 -7.5625 8.546875 -7.046875 8.921875 -6.390625 C 9.304688 -5.742188 9.5 -5.015625 9.5 -4.203125 C 9.5 -3.378906 9.304688 -2.640625 8.921875 -1.984375 C 8.546875 -1.335938 8.015625 -0.828125 7.328125 -0.453125 C 6.648438 -0.0859375 5.890625 0.09375 5.046875 0.09375 Z M 5.046875 -0.96875 C 5.660156 -0.96875 6.210938 -1.109375 6.703125 -1.390625 C 7.203125 -1.671875 7.59375 -2.054688 7.875 -2.546875 C 8.15625 -3.035156 8.296875 -3.585938 8.296875 -4.203125 C 8.296875 -4.804688 8.15625 -5.351562 7.875 -5.84375 C 7.59375 -6.34375 7.203125 -6.726562 6.703125 -7 C 6.210938 -7.28125 5.660156 -7.421875 5.046875 -7.421875 C 4.429688 -7.421875 3.875 -7.28125 3.375 -7 C 2.875 -6.726562 2.484375 -6.34375 2.203125 -5.84375 C 1.921875 -5.351562 1.78125 -4.804688 1.78125 -4.203125 C 1.78125 -3.585938 1.921875 -3.035156 2.203125 -2.546875 C 2.484375 -2.054688 2.875 -1.671875 3.375 -1.390625 C 3.875 -1.109375 4.429688 -0.96875 5.046875 -0.96875 Z M 5.046875 -0.96875 "/></g></g></g><g fill="rgb(98.039246%, 66.268921%, 10.978699%)" fill-opacity="1"><g transform="translate(115.634656, 244.58414)"><g><path d="M 6.875 0 L 5.0625 -2.578125 C 4.84375 -2.566406 4.664062 -2.5625 4.53125 -2.5625 L 2.453125 -2.5625 L 2.453125 0 L 1.265625 0 L 1.265625 -8.40625 L 4.53125 -8.40625 C 5.625 -8.40625 6.484375 -8.144531 7.109375 -7.625 C 7.734375 -7.101562 8.046875 -6.382812 8.046875 -5.46875 C 8.046875 -4.820312 7.882812 -4.269531 7.5625 -3.8125 C 7.238281 -3.351562 6.78125 -3.019531 6.1875 -2.8125 L 8.1875 0 Z M 4.5 -3.578125 C 5.257812 -3.578125 5.835938 -3.738281 6.234375 -4.0625 C 6.640625 -4.394531 6.84375 -4.863281 6.84375 -5.46875 C 6.84375 -6.082031 6.640625 -6.550781 6.234375 -6.875 C 5.835938 -7.195312 5.257812 -7.359375 4.5 -7.359375 L 2.453125 -7.359375 L 2.453125 -3.578125 Z M 4.5 -3.578125 "/></g></g></g><g fill="rgb(98.039246%, 66.268921%, 10.978699%)" fill-opacity="1"><g transform="translate(124.178665, 244.58414)"><g><path d="M 9.046875 0 L 9.03125 -6.125 L 6 -1.015625 L 5.453125 -1.015625 L 2.40625 -6.078125 L 2.40625 0 L 1.265625 0 L 1.265625 -8.40625 L 2.25 -8.40625 L 5.75 -2.5 L 9.203125 -8.40625 L 10.1875 -8.40625 L 10.203125 0 Z M 9.046875 0 "/></g></g></g><g fill="rgb(98.039246%, 66.268921%, 10.978699%)" fill-opacity="1"><g transform="translate(135.458682, 244.58414)"><g><path d="M 6.609375 -2.09375 L 2.140625 -2.09375 L 1.21875 0 L -0.015625 0 L 3.796875 -8.40625 L 4.984375 -8.40625 L 8.796875 0 L 7.53125 0 Z M 6.1875 -3.0625 L 4.375 -7.171875 L 2.5625 -3.0625 Z M 6.1875 -3.0625 "/></g></g></g><g fill="rgb(98.039246%, 66.268921%, 10.978699%)" fill-opacity="1"><g transform="translate(144.062693, 244.58414)"><g><path d="M 3.703125 0.09375 C 3.078125 0.09375 2.46875 0 1.875 -0.1875 C 1.289062 -0.382812 0.828125 -0.640625 0.484375 -0.953125 L 0.9375 -1.890625 C 1.257812 -1.609375 1.671875 -1.375 2.171875 -1.1875 C 2.671875 -1.007812 3.179688 -0.921875 3.703125 -0.921875 C 4.398438 -0.921875 4.921875 -1.035156 5.265625 -1.265625 C 5.609375 -1.503906 5.78125 -1.820312 5.78125 -2.21875 C 5.78125 -2.507812 5.6875 -2.742188 5.5 -2.921875 C 5.3125 -3.097656 5.078125 -3.234375 4.796875 -3.328125 C 4.523438 -3.429688 4.140625 -3.539062 3.640625 -3.65625 C 3.003906 -3.8125 2.492188 -3.960938 2.109375 -4.109375 C 1.722656 -4.265625 1.390625 -4.5 1.109375 -4.8125 C 0.835938 -5.132812 0.703125 -5.5625 0.703125 -6.09375 C 0.703125 -6.539062 0.816406 -6.941406 1.046875 -7.296875 C 1.285156 -7.660156 1.644531 -7.953125 2.125 -8.171875 C 2.601562 -8.390625 3.195312 -8.5 3.90625 -8.5 C 4.40625 -8.5 4.894531 -8.429688 5.375 -8.296875 C 5.851562 -8.171875 6.265625 -7.988281 6.609375 -7.75 L 6.21875 -6.796875 C 5.863281 -7.015625 5.484375 -7.179688 5.078125 -7.296875 C 4.679688 -7.410156 4.289062 -7.46875 3.90625 -7.46875 C 3.226562 -7.46875 2.71875 -7.34375 2.375 -7.09375 C 2.039062 -6.851562 1.875 -6.535156 1.875 -6.140625 C 1.875 -5.859375 1.96875 -5.625 2.15625 -5.4375 C 2.351562 -5.257812 2.59375 -5.117188 2.875 -5.015625 C 3.15625 -4.921875 3.539062 -4.816406 4.03125 -4.703125 C 4.664062 -4.546875 5.171875 -4.390625 5.546875 -4.234375 C 5.929688 -4.085938 6.257812 -3.859375 6.53125 -3.546875 C 6.8125 -3.234375 6.953125 -2.816406 6.953125 -2.296875 C 6.953125 -1.847656 6.832031 -1.441406 6.59375 -1.078125 C 6.351562 -0.722656 5.988281 -0.4375 5.5 -0.21875 C 5.019531 -0.0078125 4.421875 0.09375 3.703125 0.09375 Z M 3.703125 0.09375 "/></g></g></g><g fill="rgb(98.039246%, 66.268921%, 10.978699%)" fill-opacity="1"><g transform="translate(151.334704, 244.58414)"><g><path d="M 1.265625 -8.40625 L 2.453125 -8.40625 L 2.453125 0 L 1.265625 0 Z M 1.265625 -8.40625 "/></g></g></g><g fill="rgb(98.039246%, 66.268921%, 10.978699%)" fill-opacity="1"><g transform="translate(154.874704, 244.58414)"><g/></g></g><g fill="rgb(98.039246%, 66.268921%, 10.978699%)" fill-opacity="1"><g transform="translate(157.922712, 244.58414)"><g><path d="M 1.265625 -8.40625 L 4.796875 -8.40625 C 5.679688 -8.40625 6.46875 -8.226562 7.15625 -7.875 C 7.851562 -7.519531 8.390625 -7.023438 8.765625 -6.390625 C 9.148438 -5.753906 9.34375 -5.023438 9.34375 -4.203125 C 9.34375 -3.378906 9.148438 -2.648438 8.765625 -2.015625 C 8.390625 -1.378906 7.851562 -0.882812 7.15625 -0.53125 C 6.46875 -0.175781 5.679688 0 4.796875 0 L 1.265625 0 Z M 4.734375 -1.046875 C 5.410156 -1.046875 6.003906 -1.175781 6.515625 -1.4375 C 7.035156 -1.707031 7.4375 -2.078125 7.71875 -2.546875 C 8 -3.023438 8.140625 -3.578125 8.140625 -4.203125 C 8.140625 -4.828125 8 -5.375 7.71875 -5.84375 C 7.4375 -6.320312 7.035156 -6.691406 6.515625 -6.953125 C 6.003906 -7.222656 5.410156 -7.359375 4.734375 -7.359375 L 2.453125 -7.359375 L 2.453125 -1.046875 Z M 4.734375 -1.046875 "/></g></g></g><g fill="rgb(98.039246%, 66.268921%, 10.978699%)" fill-opacity="1"><g transform="translate(167.654733, 244.58414)"><g><path d="M 6.609375 -2.09375 L 2.140625 -2.09375 L 1.21875 0 L -0.015625 0 L 3.796875 -8.40625 L 4.984375 -8.40625 L 8.796875 0 L 7.53125 0 Z M 6.1875 -3.0625 L 4.375 -7.171875 L 2.5625 -3.0625 Z M 6.1875 -3.0625 "/></g></g></g><g fill="rgb(98.039246%, 66.268921%, 10.978699%)" fill-opacity="1"><g transform="translate(176.258744, 244.58414)"><g><path d="M 2.921875 -7.359375 L 0.046875 -7.359375 L 0.046875 -8.40625 L 7 -8.40625 L 7 -7.359375 L 4.109375 -7.359375 L 4.109375 0 L 2.921875 0 Z M 2.921875 -7.359375 "/></g></g></g><g fill="rgb(98.039246%, 66.268921%, 10.978699%)" fill-opacity="1"><g transform="translate(183.122749, 244.58414)"><g><path d="M 6.609375 -2.09375 L 2.140625 -2.09375 L 1.21875 0 L -0.015625 0 L 3.796875 -8.40625 L 4.984375 -8.40625 L 8.796875 0 L 7.53125 0 Z M 6.1875 -3.0625 L 4.375 -7.171875 L 2.5625 -3.0625 Z M 6.1875 -3.0625 "/></g></g></g><g fill="rgb(98.039246%, 66.268921%, 10.978699%)" fill-opacity="1"><g transform="translate(191.72676, 244.58414)"><g/></g></g><g fill="rgb(98.039246%, 66.268921%, 10.978699%)" fill-opacity="1"><g transform="translate(194.774768, 244.58414)"><g><path d="M 4 -3.734375 L 2.453125 -2.171875 L 2.453125 0 L 1.265625 0 L 1.265625 -8.40625 L 2.453125 -8.40625 L 2.453125 -3.703125 L 7.015625 -8.40625 L 8.390625 -8.40625 L 4.796875 -4.625 L 8.609375 0 L 7.21875 0 Z M 4 -3.734375 "/></g></g></g><g fill="rgb(98.039246%, 66.268921%, 10.978699%)" fill-opacity="1"><g transform="translate(203.222785, 244.58414)"><g><path d="M 7.359375 -1.046875 L 7.359375 0 L 1.265625 0 L 1.265625 -8.40625 L 7.1875 -8.40625 L 7.1875 -7.359375 L 2.453125 -7.359375 L 2.453125 -4.78125 L 6.671875 -4.78125 L 6.671875 -3.75 L 2.453125 -3.75 L 2.453125 -1.046875 Z M 7.359375 -1.046875 "/></g></g></g><g fill="rgb(98.039246%, 66.268921%, 10.978699%)" fill-opacity="1"><g transform="translate(211.082792, 244.58414)"><g><path d="M 3.703125 0.09375 C 3.078125 0.09375 2.46875 0 1.875 -0.1875 C 1.289062 -0.382812 0.828125 -0.640625 0.484375 -0.953125 L 0.9375 -1.890625 C 1.257812 -1.609375 1.671875 -1.375 2.171875 -1.1875 C 2.671875 -1.007812 3.179688 -0.921875 3.703125 -0.921875 C 4.398438 -0.921875 4.921875 -1.035156 5.265625 -1.265625 C 5.609375 -1.503906 5.78125 -1.820312 5.78125 -2.21875 C 5.78125 -2.507812 5.6875 -2.742188 5.5 -2.921875 C 5.3125 -3.097656 5.078125 -3.234375 4.796875 -3.328125 C 4.523438 -3.429688 4.140625 -3.539062 3.640625 -3.65625 C 3.003906 -3.8125 2.492188 -3.960938 2.109375 -4.109375 C 1.722656 -4.265625 1.390625 -4.5 1.109375 -4.8125 C 0.835938 -5.132812 0.703125 -5.5625 0.703125 -6.09375 C 0.703125 -6.539062 0.816406 -6.941406 1.046875 -7.296875 C 1.285156 -7.660156 1.644531 -7.953125 2.125 -8.171875 C 2.601562 -8.390625 3.195312 -8.5 3.90625 -8.5 C 4.40625 -8.5 4.894531 -8.429688 5.375 -8.296875 C 5.851562 -8.171875 6.265625 -7.988281 6.609375 -7.75 L 6.21875 -6.796875 C 5.863281 -7.015625 5.484375 -7.179688 5.078125 -7.296875 C 4.679688 -7.410156 4.289062 -7.46875 3.90625 -7.46875 C 3.226562 -7.46875 2.71875 -7.34375 2.375 -7.09375 C 2.039062 -6.851562 1.875 -6.535156 1.875 -6.140625 C 1.875 -5.859375 1.96875 -5.625 2.15625 -5.4375 C 2.351562 -5.257812 2.59375 -5.117188 2.875 -5.015625 C 3.15625 -4.921875 3.539062 -4.816406 4.03125 -4.703125 C 4.664062 -4.546875 5.171875 -4.390625 5.546875 -4.234375 C 5.929688 -4.085938 6.257812 -3.859375 6.53125 -3.546875 C 6.8125 -3.234375 6.953125 -2.816406 6.953125 -2.296875 C 6.953125 -1.847656 6.832031 -1.441406 6.59375 -1.078125 C 6.351562 -0.722656 5.988281 -0.4375 5.5 -0.21875 C 5.019531 -0.0078125 4.421875 0.09375 3.703125 0.09375 Z M 3.703125 0.09375 "/></g></g></g><g fill="rgb(98.039246%, 66.268921%, 10.978699%)" fill-opacity="1"><g transform="translate(218.354803, 244.58414)"><g><path d="M 7.359375 -1.046875 L 7.359375 0 L 1.265625 0 L 1.265625 -8.40625 L 7.1875 -8.40625 L 7.1875 -7.359375 L 2.453125 -7.359375 L 2.453125 -4.78125 L 6.671875 -4.78125 L 6.671875 -3.75 L 2.453125 -3.75 L 2.453125 -1.046875 Z M 7.359375 -1.046875 "/></g></g></g><g fill="rgb(98.039246%, 66.268921%, 10.978699%)" fill-opacity="1"><g transform="translate(226.214811, 244.58414)"><g><path d="M 2.34375 0.09375 C 1.832031 0.09375 1.359375 -0.0078125 0.921875 -0.21875 C 0.492188 -0.4375 0.148438 -0.734375 -0.109375 -1.109375 L 0.59375 -1.9375 C 1.050781 -1.269531 1.632812 -0.9375 2.34375 -0.9375 C 2.8125 -0.9375 3.164062 -1.078125 3.40625 -1.359375 C 3.65625 -1.648438 3.78125 -2.078125 3.78125 -2.640625 L 3.78125 -7.359375 L 0.75 -7.359375 L 0.75 -8.40625 L 4.96875 -8.40625 L 4.96875 -2.703125 C 4.96875 -1.773438 4.742188 -1.078125 4.296875 -0.609375 C 3.859375 -0.140625 3.207031 0.09375 2.34375 0.09375 Z M 2.34375 0.09375 "/></g></g></g><g fill="rgb(98.039246%, 66.268921%, 10.978699%)" fill-opacity="1"><g transform="translate(232.190835, 244.58414)"><g><path d="M 6.609375 -2.09375 L 2.140625 -2.09375 L 1.21875 0 L -0.015625 0 L 3.796875 -8.40625 L 4.984375 -8.40625 L 8.796875 0 L 7.53125 0 Z M 6.1875 -3.0625 L 4.375 -7.171875 L 2.5625 -3.0625 Z M 6.1875 -3.0625 "/></g></g></g><g fill="rgb(98.039246%, 66.268921%, 10.978699%)" fill-opacity="1"><g transform="translate(240.794846, 244.58414)"><g><path d="M 8.484375 -8.40625 L 8.484375 0 L 7.28125 0 L 7.28125 -3.75 L 2.453125 -3.75 L 2.453125 0 L 1.265625 0 L 1.265625 -8.40625 L 2.453125 -8.40625 L 2.453125 -4.78125 L 7.28125 -4.78125 L 7.28125 -8.40625 Z M 8.484375 -8.40625 "/></g></g></g><g fill="rgb(98.039246%, 66.268921%, 10.978699%)" fill-opacity="1"><g transform="translate(250.358856, 244.58414)"><g><path d="M 2.921875 -7.359375 L 0.046875 -7.359375 L 0.046875 -8.40625 L 7 -8.40625 L 7 -7.359375 L 4.109375 -7.359375 L 4.109375 0 L 2.921875 0 Z M 2.921875 -7.359375 "/></g></g></g><g fill="rgb(98.039246%, 66.268921%, 10.978699%)" fill-opacity="1"><g transform="translate(257.222861, 244.58414)"><g><path d="M 7.359375 -1.046875 L 7.359375 0 L 1.265625 0 L 1.265625 -8.40625 L 7.1875 -8.40625 L 7.1875 -7.359375 L 2.453125 -7.359375 L 2.453125 -4.78125 L 6.671875 -4.78125 L 6.671875 -3.75 L 2.453125 -3.75 L 2.453125 -1.046875 Z M 7.359375 -1.046875 "/></g></g></g><g fill="rgb(98.039246%, 66.268921%, 10.978699%)" fill-opacity="1"><g transform="translate(265.082869, 244.58414)"><g><path d="M 6.875 0 L 5.0625 -2.578125 C 4.84375 -2.566406 4.664062 -2.5625 4.53125 -2.5625 L 2.453125 -2.5625 L 2.453125 0 L 1.265625 0 L 1.265625 -8.40625 L 4.53125 -8.40625 C 5.625 -8.40625 6.484375 -8.144531 7.109375 -7.625 C 7.734375 -7.101562 8.046875 -6.382812 8.046875 -5.46875 C 8.046875 -4.820312 7.882812 -4.269531 7.5625 -3.8125 C 7.238281 -3.351562 6.78125 -3.019531 6.1875 -2.8125 L 8.1875 0 Z M 4.5 -3.578125 C 5.257812 -3.578125 5.835938 -3.738281 6.234375 -4.0625 C 6.640625 -4.394531 6.84375 -4.863281 6.84375 -5.46875 C 6.84375 -6.082031 6.640625 -6.550781 6.234375 -6.875 C 5.835938 -7.195312 5.257812 -7.359375 4.5 -7.359375 L 2.453125 -7.359375 L 2.453125 -3.578125 Z M 4.5 -3.578125 "/></g></g></g><g fill="rgb(98.039246%, 66.268921%, 10.978699%)" fill-opacity="1"><g transform="translate(273.62689, 244.58414)"><g><path d="M 6.609375 -2.09375 L 2.140625 -2.09375 L 1.21875 0 L -0.015625 0 L 3.796875 -8.40625 L 4.984375 -8.40625 L 8.796875 0 L 7.53125 0 Z M 6.1875 -3.0625 L 4.375 -7.171875 L 2.5625 -3.0625 Z M 6.1875 -3.0625 "/></g></g></g><g fill="rgb(98.039246%, 66.268921%, 10.978699%)" fill-opacity="1"><g transform="translate(282.230901, 244.58414)"><g><path d="M 6.609375 -2.09375 L 2.140625 -2.09375 L 1.21875 0 L -0.015625 0 L 3.796875 -8.40625 L 4.984375 -8.40625 L 8.796875 0 L 7.53125 0 Z M 6.1875 -3.0625 L 4.375 -7.171875 L 2.5625 -3.0625 Z M 6.1875 -3.0625 "/></g></g></g><g fill="rgb(98.039246%, 66.268921%, 10.978699%)" fill-opacity="1"><g transform="translate(290.834912, 244.58414)"><g><path d="M 8.484375 -8.40625 L 8.484375 0 L 7.5 0 L 2.453125 -6.265625 L 2.453125 0 L 1.265625 0 L 1.265625 -8.40625 L 2.25 -8.40625 L 7.28125 -2.140625 L 7.28125 -8.40625 Z M 8.484375 -8.40625 "/></g></g></g><g fill="rgb(98.039246%, 66.268921%, 10.978699%)" fill-opacity="1"><g transform="translate(300.398922, 244.58414)"><g/></g></g><g fill="rgb(98.039246%, 66.268921%, 10.978699%)" fill-opacity="1"><g transform="translate(303.446941, 244.58414)"><g><path d="M 3.703125 0.09375 C 3.078125 0.09375 2.46875 0 1.875 -0.1875 C 1.289062 -0.382812 0.828125 -0.640625 0.484375 -0.953125 L 0.9375 -1.890625 C 1.257812 -1.609375 1.671875 -1.375 2.171875 -1.1875 C 2.671875 -1.007812 3.179688 -0.921875 3.703125 -0.921875 C 4.398438 -0.921875 4.921875 -1.035156 5.265625 -1.265625 C 5.609375 -1.503906 5.78125 -1.820312 5.78125 -2.21875 C 5.78125 -2.507812 5.6875 -2.742188 5.5 -2.921875 C 5.3125 -3.097656 5.078125 -3.234375 4.796875 -3.328125 C 4.523438 -3.429688 4.140625 -3.539062 3.640625 -3.65625 C 3.003906 -3.8125 2.492188 -3.960938 2.109375 -4.109375 C 1.722656 -4.265625 1.390625 -4.5 1.109375 -4.8125 C 0.835938 -5.132812 0.703125 -5.5625 0.703125 -6.09375 C 0.703125 -6.539062 0.816406 -6.941406 1.046875 -7.296875 C 1.285156 -7.660156 1.644531 -7.953125 2.125 -8.171875 C 2.601562 -8.390625 3.195312 -8.5 3.90625 -8.5 C 4.40625 -8.5 4.894531 -8.429688 5.375 -8.296875 C 5.851562 -8.171875 6.265625 -7.988281 6.609375 -7.75 L 6.21875 -6.796875 C 5.863281 -7.015625 5.484375 -7.179688 5.078125 -7.296875 C 4.679688 -7.410156 4.289062 -7.46875 3.90625 -7.46875 C 3.226562 -7.46875 2.71875 -7.34375 2.375 -7.09375 C 2.039062 -6.851562 1.875 -6.535156 1.875 -6.140625 C 1.875 -5.859375 1.96875 -5.625 2.15625 -5.4375 C 2.351562 -5.257812 2.59375 -5.117188 2.875 -5.015625 C 3.15625 -4.921875 3.539062 -4.816406 4.03125 -4.703125 C 4.664062 -4.546875 5.171875 -4.390625 5.546875 -4.234375 C 5.929688 -4.085938 6.257812 -3.859375 6.53125 -3.546875 C 6.8125 -3.234375 6.953125 -2.816406 6.953125 -2.296875 C 6.953125 -1.847656 6.832031 -1.441406 6.59375 -1.078125 C 6.351562 -0.722656 5.988281 -0.4375 5.5 -0.21875 C 5.019531 -0.0078125 4.421875 0.09375 3.703125 0.09375 Z M 3.703125 0.09375 "/></g></g></g><g fill="rgb(98.039246%, 66.268921%, 10.978699%)" fill-opacity="1"><g transform="translate(310.718952, 244.58414)"><g><path d="M 5.046875 0.09375 C 4.203125 0.09375 3.4375 -0.0859375 2.75 -0.453125 C 2.070312 -0.828125 1.539062 -1.34375 1.15625 -2 C 0.769531 -2.65625 0.578125 -3.390625 0.578125 -4.203125 C 0.578125 -5.003906 0.769531 -5.734375 1.15625 -6.390625 C 1.539062 -7.046875 2.070312 -7.5625 2.75 -7.9375 C 3.4375 -8.3125 4.203125 -8.5 5.046875 -8.5 C 5.890625 -8.5 6.648438 -8.3125 7.328125 -7.9375 C 8.015625 -7.5625 8.546875 -7.046875 8.921875 -6.390625 C 9.304688 -5.742188 9.5 -5.015625 9.5 -4.203125 C 9.5 -3.378906 9.304688 -2.640625 8.921875 -1.984375 C 8.546875 -1.335938 8.015625 -0.828125 7.328125 -0.453125 C 6.648438 -0.0859375 5.890625 0.09375 5.046875 0.09375 Z M 5.046875 -0.96875 C 5.660156 -0.96875 6.210938 -1.109375 6.703125 -1.390625 C 7.203125 -1.671875 7.59375 -2.054688 7.875 -2.546875 C 8.15625 -3.035156 8.296875 -3.585938 8.296875 -4.203125 C 8.296875 -4.804688 8.15625 -5.351562 7.875 -5.84375 C 7.59375 -6.34375 7.203125 -6.726562 6.703125 -7 C 6.210938 -7.28125 5.660156 -7.421875 5.046875 -7.421875 C 4.429688 -7.421875 3.875 -7.28125 3.375 -7 C 2.875 -6.726562 2.484375 -6.34375 2.203125 -5.84375 C 1.921875 -5.351562 1.78125 -4.804688 1.78125 -4.203125 C 1.78125 -3.585938 1.921875 -3.035156 2.203125 -2.546875 C 2.484375 -2.054688 2.875 -1.671875 3.375 -1.390625 C 3.875 -1.109375 4.429688 -0.96875 5.046875 -0.96875 Z M 5.046875 -0.96875 "/></g></g></g><g fill="rgb(98.039246%, 66.268921%, 10.978699%)" fill-opacity="1"><g transform="translate(320.618983, 244.58414)"><g><path d="M 3.703125 0.09375 C 3.078125 0.09375 2.46875 0 1.875 -0.1875 C 1.289062 -0.382812 0.828125 -0.640625 0.484375 -0.953125 L 0.9375 -1.890625 C 1.257812 -1.609375 1.671875 -1.375 2.171875 -1.1875 C 2.671875 -1.007812 3.179688 -0.921875 3.703125 -0.921875 C 4.398438 -0.921875 4.921875 -1.035156 5.265625 -1.265625 C 5.609375 -1.503906 5.78125 -1.820312 5.78125 -2.21875 C 5.78125 -2.507812 5.6875 -2.742188 5.5 -2.921875 C 5.3125 -3.097656 5.078125 -3.234375 4.796875 -3.328125 C 4.523438 -3.429688 4.140625 -3.539062 3.640625 -3.65625 C 3.003906 -3.8125 2.492188 -3.960938 2.109375 -4.109375 C 1.722656 -4.265625 1.390625 -4.5 1.109375 -4.8125 C 0.835938 -5.132812 0.703125 -5.5625 0.703125 -6.09375 C 0.703125 -6.539062 0.816406 -6.941406 1.046875 -7.296875 C 1.285156 -7.660156 1.644531 -7.953125 2.125 -8.171875 C 2.601562 -8.390625 3.195312 -8.5 3.90625 -8.5 C 4.40625 -8.5 4.894531 -8.429688 5.375 -8.296875 C 5.851562 -8.171875 6.265625 -7.988281 6.609375 -7.75 L 6.21875 -6.796875 C 5.863281 -7.015625 5.484375 -7.179688 5.078125 -7.296875 C 4.679688 -7.410156 4.289062 -7.46875 3.90625 -7.46875 C 3.226562 -7.46875 2.71875 -7.34375 2.375 -7.09375 C 2.039062 -6.851562 1.875 -6.535156 1.875 -6.140625 C 1.875 -5.859375 1.96875 -5.625 2.15625 -5.4375 C 2.351562 -5.257812 2.59375 -5.117188 2.875 -5.015625 C 3.15625 -4.921875 3.539062 -4.816406 4.03125 -4.703125 C 4.664062 -4.546875 5.171875 -4.390625 5.546875 -4.234375 C 5.929688 -4.085938 6.257812 -3.859375 6.53125 -3.546875 C 6.8125 -3.234375 6.953125 -2.816406 6.953125 -2.296875 C 6.953125 -1.847656 6.832031 -1.441406 6.59375 -1.078125 C 6.351562 -0.722656 5.988281 -0.4375 5.5 -0.21875 C 5.019531 -0.0078125 4.421875 0.09375 3.703125 0.09375 Z M 3.703125 0.09375 "/></g></g></g><g fill="rgb(98.039246%, 66.268921%, 10.978699%)" fill-opacity="1"><g transform="translate(327.890993, 244.58414)"><g><path d="M 1.265625 -8.40625 L 2.453125 -8.40625 L 2.453125 0 L 1.265625 0 Z M 1.265625 -8.40625 "/></g></g></g><g fill="rgb(98.039246%, 66.268921%, 10.978699%)" fill-opacity="1"><g transform="translate(331.430994, 244.58414)"><g><path d="M 6.609375 -2.09375 L 2.140625 -2.09375 L 1.21875 0 L -0.015625 0 L 3.796875 -8.40625 L 4.984375 -8.40625 L 8.796875 0 L 7.53125 0 Z M 6.1875 -3.0625 L 4.375 -7.171875 L 2.5625 -3.0625 Z M 6.1875 -3.0625 "/></g></g></g><g fill="rgb(98.039246%, 66.268921%, 10.978699%)" fill-opacity="1"><g transform="translate(340.035005, 244.58414)"><g><path d="M 1.265625 -8.40625 L 2.453125 -8.40625 L 2.453125 -1.046875 L 7.015625 -1.046875 L 7.015625 0 L 1.265625 0 Z M 1.265625 -8.40625 "/></g></g></g></svg>