<?xml version="1.0" encoding="utf-8"?>
<svg xmlns="http://www.w3.org/2000/svg" xmlns:xlink="http://www.w3.org/1999/xlink" viewBox="0 0 256 256" width="256px" height="256px">
<style type="text/css">@keyframes ld-pulse
{
  0% {
    animation-timing-function: cubic-bezier(0.0413,0.3905,0.5086,0.6902);
    transform: scale(1);
  }
  24.3% {
    animation-timing-function: cubic-bezier(0.2248,0.6332,0.5246,1);
    transform: scale(0.8458);
  }
  55% {
    animation-timing-function: cubic-bezier(0.3036,0.3393,0.655,0.6144);
    transform: scale(0.8022);
  }
  70.2% {
    animation-timing-function: cubic-bezier(0.4464,0.2728,0.5562,0.7288);
    transform: scale(0.8294);
  }
  82.3% {
    animation-timing-function: cubic-bezier(0.6826,0.1845,1,0.7358);
    transform: scale(0.869);
  }
  100% {
    transform: scale(1);
  }
}
.ld.ld-pulse {
  animation: ld-pulse 0.5s infinite;
}</style>
<rect x="0" y="0" width="256" height="256" fill="#eee"/>
<defs>
  <g id="id-0.948448445799625"><!--Generator: Adobe Illustrator 21.0.0, SVG Export Plug-In . SVG Version: 6.00 Build 0)--><style type="text/css">.st4{fill:#333}.st5{fill:#77a4bd}.st6{fill:#a0c8d7}.st7{fill:#666}</style><path class="st5" d="M35.7,57h-0.2l-2.1,2.6l-10,12.5c-2.1,2.7-5.2,6.2-4.3,9.5c1.7,6.1,7.6,6.1,11.8,6.1H50V57H35.7z"/><path class="st4" d="M30.8,87.7c-4.2,0-10.1,0-11.8-6.1c-0.9-3.3,2.2-6.8,4.3-9.5l10-12.5l2.1-2.6l0,0l5-6.3c0,0,0,0,0,0v0l1.6-2.1 l1-1.3v-8.5V27.7v-3.9v-4v-2.3l-2.2-0.2c-1.2-0.1-2.1-1.1-2.1-2.4c0-1.3,1.1-2.4,2.4-2.4H50v-5l-9.2,0c-0.9,0-1.7,0.3-2.2,0.4 c-2.8,1-4.9,3.8-4.9,7c0,3,1.8,5.6,4.4,6.7v0.5v7.2v16.5L29.3,57L16.7,72.8c-2.9,3.7-3.5,8.6-1.4,12.8c2,4.2,6.2,6.9,10.9,6.9H50 v-4.8H30.8z"/><polygon class="st4" points="35.4,57 33.3,59.6 35.4,57 "/><path class="st6" d="M64.3,57H50v30.7h19.2c4.2,0,10.7-0.7,11.8-6.1c0.7-3.4-2.2-6.8-4.3-9.5l-10-12.5L64.6,57H64.3z"/><path class="st7" d="M84.7,85.6c2-4.2,1.5-9.1-1.4-12.8L70.7,57l-8.8-11.1V29.3v-7v-0.6c2.6-1.1,4.4-3.8,4.4-6.8 c0-4.1-3.3-7.4-7.4-7.4h-4.4v0l-4.5,0v5h8.9c1.3,0,2.4,1.1,2.4,2.5c0,1.2-0.9,2.2-2.1,2.3l-2.2,0.2v2.3v4v3.9v19.6l1,1.3l1.6,2.1v0 c0,0,0,0,0,0c0,0,0,0,0,0l7.1,8.9l10,12.5c2.1,2.7,5,6.1,4.3,9.5c-1.1,5.3-7.6,6.1-11.8,6.1H50v4.8h23.9 C78.5,92.5,82.7,89.9,84.7,85.6z"/><metadata xmlns:d="https://loading.io/stock/"><d:name>erlenemeyer flask</d:name><d:tags>test tube,experiment,laboratory,lab,science,chemistry,erlenemeyer flask,web application</d:tags><d:license>pro</d:license><d:slug>yh9taz</d:slug></metadata></g>
  <g id="id-0.948448445799625-2">
    
<!-- Generator: Adobe Illustrator 21.0.0, SVG Export Plug-In . SVG Version: 6.00 Build 0)  -->






<polygon fill="#B3B4B4" points="95.261,98.953 73.345,96.2 74.22,90.577 94.461,93.724 "/>
<path fill="#B3B4B4" d="M38.105,224.49c-0.05,0-0.099,0-0.149-0.001c-2.943-0.039-5.694-1.221-7.748-3.33
	c-4.239-4.352-4.147-11.342,0.205-15.581c2.108-2.054,4.884-3.157,7.833-3.124c2.943,0.039,5.694,1.222,7.748,3.33
	c4.239,4.352,4.147,11.342-0.205,15.58C43.716,223.383,40.992,224.49,38.105,224.49z M38.098,207.494
	c-1.567,0-3.044,0.6-4.169,1.695c-2.361,2.3-2.411,6.092-0.111,8.453c1.114,1.144,2.607,1.785,4.204,1.806
	c1.609,0.014,3.106-0.581,4.25-1.695c2.361-2.3,2.411-6.092,0.112-8.453l0,0c-1.114-1.144-2.607-1.785-4.204-1.806
	C38.152,207.494,38.125,207.494,38.098,207.494z"/>
<ellipse transform="matrix(0.7249 -0.6888 0.6888 0.7249 31.7828 174.5914)" fill="#B3B4B4" cx="234.5" cy="47.5" rx="4.4" ry="4.4"/>
<path fill="#B3B4B4" d="M156.299,159.176l-1.714-5.053c3.929-1.333,6.042-5.614,4.709-9.543c-0.645-1.903-1.994-3.442-3.796-4.331
	c-1.803-0.89-3.844-1.024-5.747-0.378l-1.714-5.053c3.254-1.103,6.741-0.874,9.822,0.646c3.08,1.52,5.385,4.149,6.488,7.402
	C166.625,149.582,163.015,156.898,156.299,159.176z"/>
<ellipse transform="matrix(0.7249 -0.6888 0.6888 0.7249 -74.7837 111.7244)" fill="#B3B4B4" cx="102.5" cy="149.5" rx="4.4" ry="4.4"/>
<polygon fill="#B3B4B4" points="231.486,249.178 247.065,235.877 252.857,238.786 235.18,253.505 "/>
<polygon fill="#B3B4B4" points="115.367,21.954 103.961,43.014 100.239,36.891 110.431,19.123 "/>
<path fill="#B3B4B4" d="M222.104,130.57c-0.044,0-0.088,0-0.132-0.001c-2.596-0.034-5.024-1.077-6.835-2.937
	c-3.74-3.84-3.659-10.006,0.181-13.746c1.86-1.812,4.308-2.785,6.91-2.756c2.596,0.034,5.024,1.078,6.835,2.938
	c3.74,3.839,3.659,10.006-0.181,13.745C227.054,129.594,224.651,130.57,222.104,130.57z M222.099,115.576
	c-1.382,0-2.686,0.53-3.678,1.496c-2.083,2.029-2.127,5.374-0.098,7.458c0.983,1.009,2.3,1.575,3.708,1.594
	c1.42,0.013,2.74-0.512,3.749-1.495c2.083-2.029,2.127-5.374,0.098-7.457l0,0c-0.983-1.009-2.3-1.575-3.708-1.594
	C222.146,115.576,222.122,115.576,222.099,115.576z"/>
<path fill="#B3B4B4" d="M184.509,10.022l-4.015,1.058c-0.822-3.122-4.032-4.993-7.154-4.17c-1.512,0.398-2.779,1.362-3.567,2.713
	c-0.788,1.352-1.003,2.929-0.603,4.44l-4.015,1.058c-0.681-2.585-0.315-5.28,1.031-7.589c1.346-2.309,3.511-3.956,6.096-4.637
	C177.619,1.489,183.103,4.687,184.509,10.022z"/>


    <g transform="matrix(0.9912 0.1325 -0.1325 0.9912 30.542 -14.083) translate(121.067,222.398) scale(0.6786666666666666)"><g class="ld ld-pulse" style="animation-delay:0s"><g data-icon="">  <use xlink:href="#id-0.948448445799625" x="-50" y="-50"/>
</g></g></g><g transform="matrix(-0.0456 0.999 -0.999 -0.0456 243.7065 -82.5047) translate(161.268,75.17099999999999) scale(0.47706666666666664)"><g class="ld ld-pulse" style="animation-delay:-0.1s"><g data-icon="">  <use xlink:href="#id-0.948448445799625" x="-50" y="-50"/>
</g></g></g><g transform="matrix(0.5905 -0.8071 0.8071 0.5905 -67.6584 252.8308) translate(215.293,193.0815) scale(0.5214666666666667)"><g class="ld ld-pulse" style="animation-delay:-0.2s"><g data-icon="">  <use xlink:href="#id-0.948448445799625" x="-50" y="-50"/>
</g></g></g><g transform="matrix(-0.4749 -0.8801 0.8801 -0.4749 38.8277 99.7848) translate(49.185,38.308499999999995) scale(0.5980444444444444)"><g class="ld ld-pulse" style="animation-delay:-0.3s"><g data-icon="">  <use xlink:href="#id-0.948448445799625" x="-50" y="-50"/>
</g></g></g><g transform="matrix(0.7381 -0.6747 0.6747 0.7381 -85.9069 63.1885) translate(38.434,142.243) scale(0.607688888888889)"><g class="ld ld-pulse" style="animation-delay:-0.4s"><g data-icon="">  <use xlink:href="#id-0.948448445799625" x="-50" y="-50"/>
</g></g></g>
  </g>
</defs>
<g>
  <use xlink:href="#id-0.948448445799625-2" x="0" y="0"/>
  <use xlink:href="#id-0.948448445799625-2" x="-256" y="0"/>
  <animateTransform attributeName="transform" type="translate" repeatCount="indefinite" dur="4s"
  keyTimes="0;1" values="0;256"/>
</g>
</svg>